<svg width="463" height="56" viewBox="0 0 463 56" fill="none" xmlns="http://www.w3.org/2000/svg">
<path d="M27.246 19.272C42.116 19.272 58.279 18.626 74.442 17.979L131.336 13.453C152.671 11.514 168.188 9.57398 178.532 8.92798C214.091 6.34198 248.355 4.40198 281.329 3.75598H283.915C289.087 3.75598 301.371 3.75598 316.241 2.46298H331.111C341.455 1.81698 353.739 1.16998 364.084 1.16998C385.419 0.523983 400.289 0.523987 407.4 0.523987H411.924C413.217 0.523987 414.51 0.523983 415.157 1.16998C417.095 1.81598 417.743 3.10898 418.388 5.04898C419.034 7.63498 418.388 9.57499 415.802 11.514L413.863 12.16C411.924 12.806 407.398 12.806 400.287 13.453L345.333 17.332C318.825 18.625 298.783 19.918 285.206 21.211C271.629 21.857 253.526 23.15 232.191 25.09C188.874 27.676 153.316 31.555 117.11 36.729L92.542 39.96C106.766 39.314 115.17 38.667 117.11 38.667L117.756 38.021H119.695C120.341 38.021 120.988 38.021 122.281 37.375C124.867 37.375 128.746 37.375 133.272 36.729L183.054 34.143C194.045 33.497 211.501 33.497 234.129 32.85L285.204 30.911C329.813 28.972 387.353 28.325 457.179 28.325C464.937 28.325 464.937 39.963 457.179 39.963C385.415 39.963 328.521 40.609 285.204 42.549L236.067 44.487C214.087 45.133 197.922 45.133 187.579 45.78C186.933 45.78 186.933 45.78 186.286 46.426L184.993 47.719H183.7C182.407 48.365 171.416 48.365 150.728 49.012C141.03 49.658 133.272 49.658 128.746 49.658H122.281C119.049 49.658 110.644 50.304 96.42 51.597L61.508 53.535C45.345 54.828 33.061 55.475 24.656 55.475H11.726C9.787 54.828 8.493 54.828 7.847 54.828C7.201 54.182 5.908 54.182 5.261 54.182L2.029 51.596C0.088998 48.364 0.735998 43.837 5.261 41.899C6.554 41.253 7.847 41.253 9.787 41.253H14.312C25.303 39.314 35 38.021 43.405 36.081L98.36 27.676C70.56 29.615 46.638 30.908 27.243 30.908C19.487 30.909 19.487 19.272 27.246 19.272V19.272Z" fill="#EF4444"/>
</svg>